<?xml version="1.0" encoding="utf-8"?>
<!-- Generator: Adobe Illustrator 19.0.0, SVG Export Plug-In . SVG Version: 6.00 Build 0)  -->
<svg version="1.1" id="图层_1" xmlns="http://www.w3.org/2000/svg" xmlns:xlink="http://www.w3.org/1999/xlink" x="0px" y="0px"
	 viewBox="-9 132.9 576 576" style="enable-background:new -9 132.9 576 576;" xml:space="preserve">
<g id="gridlines">
	<line style="fill:none;stroke:#000000;stroke-width:0.75;stroke-miterlimit:10;" x1="-9" y1="708.9" x2="567" y2="132.9"/>
	<line style="fill:none;stroke:#000000;stroke-width:0.75;stroke-miterlimit:10;" x1="567" y1="708.9" x2="-9" y2="132.9"/>
	<line style="fill:none;stroke:#000000;stroke-width:0.25;stroke-miterlimit:10;" x1="-9" y1="132.9" x2="567" y2="132.9"/>
	<line style="fill:none;stroke:#000000;stroke-width:0.25;stroke-miterlimit:10;" x1="-9" y1="156.9" x2="567" y2="156.9"/>
	<line style="fill:none;stroke:#000000;stroke-width:0.25;stroke-miterlimit:10;" x1="-9" y1="180.9" x2="567" y2="180.9"/>
	<line style="fill:none;stroke:#000000;stroke-width:0.25;stroke-miterlimit:10;" x1="-9" y1="204.9" x2="567" y2="204.9"/>
	<line style="fill:none;stroke:#000000;stroke-width:0.25;stroke-miterlimit:10;" x1="-9" y1="228.9" x2="567" y2="228.9"/>
	<line style="fill:none;stroke:#000000;stroke-width:0.25;stroke-miterlimit:10;" x1="-9" y1="252.9" x2="567" y2="252.9"/>
	<line style="fill:none;stroke:#000000;stroke-width:0.25;stroke-miterlimit:10;" x1="-9" y1="276.9" x2="567" y2="276.9"/>
	<line style="fill:none;stroke:#000000;stroke-width:0.25;stroke-miterlimit:10;" x1="-9" y1="300.9" x2="567" y2="300.9"/>
	<line style="fill:none;stroke:#000000;stroke-width:0.75;stroke-miterlimit:10;" x1="-9" y1="324.9" x2="567" y2="324.9"/>
	<line style="fill:none;stroke:#000000;stroke-width:0.25;stroke-miterlimit:10;" x1="-9" y1="348.9" x2="567" y2="348.9"/>
	<line style="fill:none;stroke:#000000;stroke-width:0.25;stroke-miterlimit:10;" x1="-9" y1="372.9" x2="567" y2="372.9"/>
	<line style="fill:none;stroke:#000000;stroke-width:0.25;stroke-miterlimit:10;" x1="-9" y1="396.9" x2="567" y2="396.9"/>
	<line style="fill:none;stroke:#000000;stroke-width:0.75;stroke-miterlimit:10;" x1="-9" y1="420.9" x2="567" y2="420.9"/>
	<line style="fill:none;stroke:#000000;stroke-width:0.25;stroke-miterlimit:10;" x1="-9" y1="444.9" x2="567" y2="444.9"/>
	<line style="fill:none;stroke:#000000;stroke-width:0.25;stroke-miterlimit:10;" x1="-9" y1="444.9" x2="567" y2="444.9"/>
	<line style="fill:none;stroke:#000000;stroke-width:0.25;stroke-miterlimit:10;" x1="-9" y1="468.9" x2="567" y2="468.9"/>
	<line style="fill:none;stroke:#000000;stroke-width:0.25;stroke-miterlimit:10;" x1="-9" y1="492.9" x2="567" y2="492.9"/>
	<line style="fill:none;stroke:#000000;stroke-width:0.75;stroke-miterlimit:10;" x1="-9" y1="516.9" x2="567" y2="516.9"/>
	<line style="fill:none;stroke:#000000;stroke-width:0.25;stroke-miterlimit:10;" x1="-9" y1="540.9" x2="567" y2="540.9"/>
	<line style="fill:none;stroke:#000000;stroke-width:0.25;stroke-miterlimit:10;" x1="-9" y1="564.9" x2="567" y2="564.9"/>
	<line style="fill:none;stroke:#000000;stroke-width:0.25;stroke-miterlimit:10;" x1="-9" y1="588.9" x2="567" y2="588.9"/>
	<line style="fill:none;stroke:#000000;stroke-width:0.25;stroke-miterlimit:10;" x1="-9" y1="612.9" x2="567" y2="612.9"/>
	<line style="fill:none;stroke:#000000;stroke-width:0.25;stroke-miterlimit:10;" x1="-9" y1="636.9" x2="567" y2="636.9"/>
	<line style="fill:none;stroke:#000000;stroke-width:0.25;stroke-miterlimit:10;" x1="-9" y1="660.9" x2="567" y2="660.9"/>
	<line style="fill:none;stroke:#000000;stroke-width:0.25;stroke-miterlimit:10;" x1="-9" y1="684.9" x2="567" y2="684.9"/>
	<line style="fill:none;stroke:#000000;stroke-width:0.25;stroke-miterlimit:10;" x1="-9" y1="708.9" x2="567" y2="708.9"/>
	<line style="fill:none;stroke:#000000;stroke-width:0.25;stroke-miterlimit:10;" x1="-9" y1="708.9" x2="-9" y2="132.9"/>
	<line style="fill:none;stroke:#000000;stroke-width:0.25;stroke-miterlimit:10;" x1="15" y1="708.9" x2="15" y2="132.9"/>
	<line style="fill:none;stroke:#000000;stroke-width:0.25;stroke-miterlimit:10;" x1="39" y1="708.9" x2="39" y2="132.9"/>
	<line style="fill:none;stroke:#000000;stroke-width:0.25;stroke-miterlimit:10;" x1="63" y1="708.9" x2="63" y2="132.9"/>
	<line style="fill:none;stroke:#000000;stroke-width:0.25;stroke-miterlimit:10;" x1="87" y1="708.9" x2="87" y2="132.9"/>
	<line style="fill:none;stroke:#000000;stroke-width:0.25;stroke-miterlimit:10;" x1="111" y1="708.9" x2="111" y2="132.9"/>
	<line style="fill:none;stroke:#000000;stroke-width:0.25;stroke-miterlimit:10;" x1="135" y1="708.9" x2="135" y2="132.9"/>
	<line style="fill:none;stroke:#000000;stroke-width:0.25;stroke-miterlimit:10;" x1="159" y1="708.9" x2="159" y2="132.9"/>
	<line style="fill:none;stroke:#000000;stroke-width:0.75;stroke-miterlimit:10;" x1="183" y1="708.9" x2="183" y2="132.9"/>
	<line style="fill:none;stroke:#000000;stroke-width:0.25;stroke-miterlimit:10;" x1="207" y1="708.9" x2="207" y2="132.9"/>
	<line style="fill:none;stroke:#000000;stroke-width:0.25;stroke-miterlimit:10;" x1="231" y1="708.9" x2="231" y2="132.9"/>
	<line style="fill:none;stroke:#000000;stroke-width:0.25;stroke-miterlimit:10;" x1="255" y1="708.9" x2="255" y2="132.9"/>
	<line style="fill:none;stroke:#000000;stroke-width:0.75;stroke-miterlimit:10;" x1="279" y1="708.9" x2="279" y2="132.9"/>
	<line style="fill:none;stroke:#000000;stroke-width:0.25;stroke-miterlimit:10;" x1="303" y1="708.9" x2="303" y2="132.9"/>
	<line style="fill:none;stroke:#000000;stroke-width:0.25;stroke-miterlimit:10;" x1="303" y1="708.9" x2="303" y2="132.9"/>
	<line style="fill:none;stroke:#000000;stroke-width:0.25;stroke-miterlimit:10;" x1="327" y1="708.9" x2="327" y2="132.9"/>
	<line style="fill:none;stroke:#000000;stroke-width:0.25;stroke-miterlimit:10;" x1="351" y1="708.9" x2="351" y2="132.9"/>
	<line style="fill:none;stroke:#000000;stroke-width:0.75;stroke-miterlimit:10;" x1="375" y1="708.9" x2="375" y2="132.9"/>
	<line style="fill:none;stroke:#000000;stroke-width:0.25;stroke-miterlimit:10;" x1="399" y1="708.9" x2="399" y2="132.9"/>
	<line style="fill:none;stroke:#000000;stroke-width:0.25;stroke-miterlimit:10;" x1="423" y1="708.9" x2="423" y2="132.9"/>
	<line style="fill:none;stroke:#000000;stroke-width:0.25;stroke-miterlimit:10;" x1="447" y1="708.9" x2="447" y2="132.9"/>
	<line style="fill:none;stroke:#000000;stroke-width:0.25;stroke-miterlimit:10;" x1="471" y1="708.9" x2="471" y2="132.9"/>
	<line style="fill:none;stroke:#000000;stroke-width:0.25;stroke-miterlimit:10;" x1="495" y1="708.9" x2="495" y2="132.9"/>
	<line style="fill:none;stroke:#000000;stroke-width:0.25;stroke-miterlimit:10;" x1="519" y1="708.9" x2="519" y2="132.9"/>
	<line style="fill:none;stroke:#000000;stroke-width:0.25;stroke-miterlimit:10;" x1="543" y1="708.9" x2="543" y2="132.9"/>
	<line style="fill:none;stroke:#000000;stroke-width:0.25;stroke-miterlimit:10;" x1="567" y1="708.9" x2="567" y2="132.9"/>
	<circle style="fill:none;stroke:#000000;stroke-width:0.75;stroke-miterlimit:10;" cx="279" cy="420.9" r="240"/>
	<circle style="fill:none;stroke:#000000;stroke-width:0.75;stroke-miterlimit:10;" cx="279" cy="420.9" r="120"/>
	<path style="fill:none;stroke:#000000;stroke-width:0.75;stroke-miterlimit:10;" d="M63,252.9c0-24,24-48,48-48h336
		c24,0,48,24,48,48v336c0,24-24,48-48,48H111c-24,0-48-24-48-48V252.9z"/>
	<path style="fill:none;stroke:#000000;stroke-width:0.75;stroke-miterlimit:10;" d="M111,228.9c0-24,24-48,48-48h240
		c24,0,48,24,48,48v384c0,24-24,48-48,48H159c-24,0-48-24-48-48V228.9z"/>
	<path style="fill:none;stroke:#000000;stroke-width:0.75;stroke-miterlimit:10;" d="M87,588.9c-24,0-48-24-48-48v-240
		c0-24,24-48,48-48h384c24,0,48,24,48,48v240c0,24-24,48-48,48H87z"/>
</g>
</svg>
