<?xml version="1.0" encoding="utf-8"?>
<!-- Generator: Adobe Illustrator 19.0.0, SVG Export Plug-In . SVG Version: 6.00 Build 0)  -->
<svg version="1.1" id="图层_1" xmlns="http://www.w3.org/2000/svg" xmlns:xlink="http://www.w3.org/1999/xlink" x="0px" y="0px"
	 viewBox="-261 384.9 72 72" style="enable-background:new -261 384.9 72 72;" xml:space="preserve">
<path style="fill:none;stroke:#444444;stroke-width:6;stroke-miterlimit:10;" d="M-225,394.4c7.3,0,13.5,2.6,18.7,7.8
	c5.2,5.2,7.8,11.4,7.8,18.7c0,7.3-2.6,13.5-7.8,18.7s-11.4,7.8-18.7,7.8s-13.5-2.6-18.7-7.8s-7.8-11.4-7.8-18.7
	c0-7.3,2.6-13.5,7.8-18.7C-238.5,397-232.3,394.4-225,394.4z"/>
<polygon style="fill:#444444;" points="-222,405.8 -222,417.9 -210,417.9 -210,423.8 -222,423.8 -222,435.9 -228,435.9 -228,423.8 
	-240,423.8 -240,417.9 -228,417.9 -228,405.8 "/>
</svg>
