<?xml version="1.0" encoding="utf-8"?>
<!-- Generated by IcoMoon.io -->
<!DOCTYPE svg PUBLIC "-//W3C//DTD SVG 1.1//EN" "http://www.w3.org/Graphics/SVG/1.1/DTD/svg11.dtd">
<svg version="1.1" xmlns="http://www.w3.org/2000/svg" xmlns:xlink="http://www.w3.org/1999/xlink" width="72" height="72" viewBox="0 0 72 72">
<path fill="#444" d="M38.531 54h6.188q-1.125 5.203-5.203 8.578t-9.563 3.375q-6.188 0-10.547-4.359t-4.359-10.547q0-5.484 3.375-9.563t8.578-5.203v6.188q-2.672 0.984-4.359 3.305t-1.688 5.273q0 3.656 2.672 6.328t6.328 2.672q2.953 0 5.273-1.688t3.305-4.359zM29.953 27.281q0-3.375 2.953-5.344t6.047-0.141h0.141v0.141q0.984 0.422 1.828 1.266l3.938 4.359q5.063 5.484 12.094 5.484v5.906q-7.875 0-14.906-5.766v10.266h9q2.391 0 4.148 1.828t1.758 4.219v16.453h-5.906v-14.906h-15.047q-2.391 0-4.219-1.828t-1.828-4.219v-17.719zM29.953 11.953q0-2.531 1.758-4.219t4.289-1.688 4.289 1.688 1.758 4.219-1.758 4.289-4.289 1.758-4.289-1.758-1.758-4.289z"></path>
</svg>
