<?xml version="1.0" encoding="utf-8"?>
<!-- Generated by IcoMoon.io -->
<!DOCTYPE svg PUBLIC "-//W3C//DTD SVG 1.1//EN" "http://www.w3.org/Graphics/SVG/1.1/DTD/svg11.dtd">
<svg version="1.1" xmlns="http://www.w3.org/2000/svg" xmlns:xlink="http://www.w3.org/1999/xlink" width="72" height="72" viewBox="0 0 72 72">
<path fill="#444" d="M36 57.656q11.391 0 18-9.703-0.141-3.938-6.328-6.609t-11.672-2.672-11.672 2.602-6.328 6.68q6.609 9.703 18 9.703zM36 15.047q-3.656 0-6.328 2.672t-2.672 6.328 2.672 6.328 6.328 2.672 6.328-2.672 2.672-6.328-2.672-6.328-6.328-2.672zM36 6.047q12.375 0 21.164 8.789t8.789 21.164-8.789 21.164-21.164 8.789-21.164-8.789-8.789-21.164 8.789-21.164 21.164-8.789z"></path>
</svg>
