<?xml version="1.0" encoding="utf-8"?>
<!-- Generator: Adobe Illustrator 19.0.0, SVG Export Plug-In . SVG Version: 6.00 Build 0)  -->
<svg version="1.1" id="图层_1" xmlns="http://www.w3.org/2000/svg" xmlns:xlink="http://www.w3.org/1999/xlink" x="0px" y="0px"
	 viewBox="-261 384.9 72 72" style="enable-background:new -261 384.9 72 72;" xml:space="preserve">
<path style="fill:#0696F9;" d="M-243,435.9v3h36v-3c0-2.7-2.1-4.9-6.2-6.7c-4.1-1.7-8.1-2.6-11.8-2.6s-7.7,0.9-11.8,2.6
	C-240.9,431-243,433.2-243,435.9L-243,435.9z M-216,411.9c0-2.4-0.9-4.5-2.7-6.3c-1.8-1.8-3.9-2.7-6.3-2.7c-2.4,0-4.5,0.9-6.3,2.7
	c-1.8,1.8-2.7,3.9-2.7,6.3c0,2.4,0.9,4.5,2.7,6.3c1.8,1.8,3.9,2.7,6.3,2.7s4.5-0.9,6.3-2.7C-216.9,416.4-216,414.3-216,411.9z
	 M-252,399.9c0-1.6,0.6-3,1.8-4.2c1.2-1.2,2.6-1.8,4.3-1.8h41.9c1.6,0,3,0.6,4.2,1.8c1.2,1.2,1.8,2.6,1.8,4.2v41.9
	c0,1.6-0.6,3-1.8,4.2c-1.2,1.2-2.6,1.8-4.2,1.8H-246c-1.7,0-3.1-0.6-4.3-1.8c-1.2-1.2-1.8-2.6-1.8-4.2
	C-252,441.8-252,399.9-252,399.9z"/>
</svg>
