<?xml version="1.0" encoding="utf-8"?>
<!-- Generated by IcoMoon.io -->
<!DOCTYPE svg PUBLIC "-//W3C//DTD SVG 1.1//EN" "http://www.w3.org/Graphics/SVG/1.1/DTD/svg11.dtd">
<svg version="1.1" xmlns="http://www.w3.org/2000/svg" xmlns:xlink="http://www.w3.org/1999/xlink" width="72" height="72" viewBox="0 0 72 72">
<path fill="#444" d="M47.953 40.5q1.828 0 3.164-1.266t1.336-3.234-1.336-3.234-3.164-1.266-3.164 1.266-1.336 3.234 1.336 3.234 3.164 1.266zM36 47.953v-23.906h29.953v23.906h-29.953zM63 54v2.953q0 2.391-1.828 4.219t-4.219 1.828h-41.906q-2.531 0-4.289-1.828t-1.758-4.219v-41.906q0-2.391 1.758-4.219t4.289-1.828h41.906q2.391 0 4.219 1.828t1.828 4.219v2.953h-27q-2.531 0-4.289 1.828t-1.758 4.219v23.906q0 2.391 1.758 4.219t4.289 1.828h27z"></path>
</svg>
