<?xml version="1.0" encoding="utf-8"?>
<!-- Generated by IcoMoon.io -->
<!DOCTYPE svg PUBLIC "-//W3C//DTD SVG 1.1//EN" "http://www.w3.org/Graphics/SVG/1.1/DTD/svg11.dtd">
<svg version="1.1" xmlns="http://www.w3.org/2000/svg" xmlns:xlink="http://www.w3.org/1999/xlink" width="72" height="72" viewBox="0 0 72 72">
<path fill="#444" d="M65.953 33.047v5.906h-12.516l9.703 9.703-4.219 4.359-13.922-14.063h-6.047v6.047l14.063 13.922-4.359 4.219-9.703-9.703v12.516h-5.906v-12.516l-9.703 9.703-4.359-4.219 14.063-13.922v-6.047h-6.047l-13.922 14.063-4.219-4.359 9.703-9.703h-12.516v-5.906h12.516l-9.703-9.703 4.219-4.359 13.922 14.063h6.047v-6.047l-14.063-13.922 4.359-4.219 9.703 9.703v-12.516h5.906v12.516l9.703-9.703 4.359 4.219-14.063 13.922v6.047h6.047l13.922-14.063 4.219 4.359-9.703 9.703h12.516z"></path>
</svg>
