<?xml version="1.0" encoding="utf-8"?>
<!-- Generated by IcoMoon.io -->
<!DOCTYPE svg PUBLIC "-//W3C//DTD SVG 1.1//EN" "http://www.w3.org/Graphics/SVG/1.1/DTD/svg11.dtd">
<svg version="1.1" xmlns="http://www.w3.org/2000/svg" xmlns:xlink="http://www.w3.org/1999/xlink" width="72" height="72" viewBox="0 0 72 72">
<path fill="#444" d="M38.953 27v9h9v6.047h-9v9h-5.906v-9h-9v-6.047h9v-9h5.906zM36 60.047q8.719 0 14.836-6.188t6.117-14.906-6.117-14.836-14.836-6.117-14.836 6.117-6.117 14.836 6.117 14.906 14.836 6.188zM36 11.953q11.25 0 19.125 7.945t7.875 19.055-7.875 19.055-19.125 7.945-19.125-7.945-7.875-19.055 7.875-19.055 19.125-7.945zM65.953 17.156l-3.797 4.641-13.781-11.672 3.797-4.5zM23.625 10.125l-13.781 11.531-3.797-4.5 13.781-11.531z"></path>
</svg>
