<?xml version="1.0" encoding="utf-8"?>
<!-- Generated by IcoMoon.io -->
<!DOCTYPE svg PUBLIC "-//W3C//DTD SVG 1.1//EN" "http://www.w3.org/Graphics/SVG/1.1/DTD/svg11.dtd">
<svg version="1.1" xmlns="http://www.w3.org/2000/svg" xmlns:xlink="http://www.w3.org/1999/xlink" width="72" height="72" viewBox="0 0 72 72">
<path fill="#444" d="M47.953 39.094v-6.047h-9v-9h-5.906v9h-9v6.047h9v9h5.906v-9h9zM56.672 50.484l6.328 6.328v3.234h-54v-3.234l6.328-6.328v-17.438q0-7.172 4.5-12.867t11.391-7.242v-2.109q0-1.969 1.406-3.375t3.375-1.406 3.375 1.406 1.406 3.375v2.109q6.891 1.547 11.391 7.242t4.5 12.867v17.438zM30.094 63h11.813q0 2.391-1.758 4.219t-4.148 1.828-4.148-1.828-1.758-4.219z"></path>
</svg>
