<?xml version="1.0" encoding="utf-8"?>
<!-- Generated by IcoMoon.io -->
<!DOCTYPE svg PUBLIC "-//W3C//DTD SVG 1.1//EN" "http://www.w3.org/Graphics/SVG/1.1/DTD/svg11.dtd">
<svg version="1.1" xmlns="http://www.w3.org/2000/svg" xmlns:xlink="http://www.w3.org/1999/xlink" width="72" height="72" viewBox="0 0 72 72">
<path fill="#444" d="M21.516 44.297q0 0.703 0.703 0.703h34.734v6.047h-36q-2.391 0-4.148-1.828t-1.758-4.219q0-1.406 0.703-2.813l4.078-7.453-10.828-22.781h-6.047v-5.906h9.844q2.813 5.906 5.625 11.953 0.703 1.266 3.234 6.68t3.938 8.367h21.094q10.547-19.125 11.531-21.094l5.203 2.953-11.531 20.953q-1.688 3.094-5.203 3.094h-22.359l-2.672 4.922zM51.047 54q2.391 0 4.148 1.828t1.758 4.219-1.758 4.148-4.148 1.758-4.219-1.758-1.828-4.148 1.828-4.219 4.219-1.828zM20.953 54q2.391 0 4.219 1.828t1.828 4.219-1.828 4.148-4.219 1.758-4.148-1.758-1.758-4.148 1.758-4.219 4.148-1.828zM33.047 27v-9h-9v-6.047h9v-9h5.906v9h9v6.047h-9v9h-5.906z"></path>
</svg>
