<?xml version="1.0" encoding="utf-8"?>
<!-- Generated by IcoMoon.io -->
<!DOCTYPE svg PUBLIC "-//W3C//DTD SVG 1.1//EN" "http://www.w3.org/Graphics/SVG/1.1/DTD/svg11.dtd">
<svg version="1.1" xmlns="http://www.w3.org/2000/svg" xmlns:xlink="http://www.w3.org/1999/xlink" width="72" height="72" viewBox="0 0 72 72">
<path fill="#444" d="M56.953 33.047v-6.047h-11.953v-11.953h-6.047v11.953h-11.953v6.047h11.953v11.953h6.047v-11.953h11.953zM60.047 6.047q2.391 0 4.148 1.758t1.758 4.148v36q0 2.391-1.758 4.219t-4.148 1.828h-36q-2.391 0-4.219-1.828t-1.828-4.219v-36q0-2.391 1.828-4.148t4.219-1.758h36zM11.953 18v42.047h42.047v5.906h-42.047q-2.391 0-4.148-1.758t-1.758-4.148v-42.047h5.906z"></path>
</svg>
